<svg width="82" height="103" viewBox="0 0 82 103" fill="none" xmlns="http://www.w3.org/2000/svg">
<path d="M1 102V1H56L81 26V102H1Z" fill="#F6F7F8"/>
<path d="M56 1L81 26M56 1H1V102H81V26M56 1V26H81" stroke="black" stroke-width="2"/>
<path d="M81 26L56 14.5V26H81Z" fill="white" stroke="black" stroke-width="2"/>
<path d="M57 3L79 25.0253H57V3Z" fill="#D2D2D2"/>
<path d="M56 40.0454L26 22.9999C15.4583 16.9182 11.4922 21.0287 10.3691 26L40.5 55.3616L56 40.0454Z" fill="#34A853"/>
<path d="M9.99997 29.5V83.9999C9.99997 84.4641 10.0431 84.9241 10.1277 85.3738L33.0639 62.7096L40.5 55.3616L10.3691 26C10.1072 27.1593 9.99997 28.3654 9.99997 29.5Z" fill="#4285F4"/>
<path d="M10.1277 85.3738C10.9544 89.7667 15.7428 93.175 23 89.9998L56 71.0425L40.5 55.3616L33.0639 62.7096L10.1277 85.3738Z" fill="#EA4335"/>
<path d="M70 63C77.5 58.5 75 50.5 70 47.9999L56 40.0454L40.5 55.3616L56 71.0425L70 63Z" fill="#FBBC04"/>
<path d="M56 40.0454L26 22.9999C15.4583 16.9182 11.4922 21.0287 10.3691 26M56 40.0454L70 47.9999C75 50.5 77.5 58.5 70 63L56 71.0425M56 40.0454L40.5 55.3616M9.99997 85.5L10.1277 85.3738M10.1277 85.3738C10.0431 84.9241 9.99997 84.4641 9.99997 83.9999V29.5C9.99997 28.3654 10.1072 27.1593 10.3691 26M10.1277 85.3738C10.9544 89.7667 15.7428 93.175 23 89.9998L56 71.0425M10.1277 85.3738L33.0639 62.7096L40.5 55.3616M56 71.0425L40.5 55.3616M40.5 55.3616L10.3691 26" stroke="black"/>
</svg>
