<svg width="82" height="103" viewBox="0 0 82 103" fill="none" xmlns="http://www.w3.org/2000/svg">
<path d="M1 102V1H56L81 26V102H1Z" fill="#F6F7F8"/>
<path d="M56 1L81 26M56 1H1V102H81V26M56 1V26H81" stroke="black" stroke-width="2"/>
<path d="M44.0371 25.0512C18.0371 25.0511 12.5371 49.0512 12.5371 49.0512C12.5371 49.0512 20.0371 39.0511 28.5371 35.5512C5.53706 56.5511 -10.4629 100.051 29.0371 83.0511C60.0371 94.5511 71.0371 66.0511 71.0371 66.0511H55.0371C55.0371 66.0511 50.037 74.0511 39.5371 72.0511C29.0371 70.0511 29.0371 59.5511 29.0371 59.5511H72.5371C72.5371 59.5511 74.5371 51.0511 69.0371 41.0512C71.0371 37.5511 80.5371 11.0511 44.0371 25.0512Z" fill="#1EBBEE" stroke="black" stroke-width="0.5"/>
<path d="M68.0371 39.5511C63.5371 30.5511 53.5371 27.0512 53.5371 27.0512C66.0371 21.0511 69.0371 27.5511 69.0371 27.5511C69.0371 27.5511 72.0371 31.5511 68.0371 39.5511Z" fill="#F9FCFF" stroke="black" stroke-width="0.5"/>
<path d="M56.537 51.0511H29.037C29.037 51.0511 30.5371 38.5511 43.0371 38.5511C55.5371 38.5511 56.537 51.0511 56.537 51.0511Z" fill="#F9FCFF" stroke="black" stroke-width="0.5"/>
<path d="M19.0371 75.0511C15.5372 70.5511 13.5371 65.5511 13.5371 65.5511C13.5371 65.5511 6.53709 78.5511 12.0371 83.0511C17.5371 87.5511 27.0371 82.0511 27.0371 82.0511C27.0371 82.0511 22.5371 79.5511 19.0371 75.0511Z" fill="#F9FCFF" stroke="black" stroke-width="0.5"/>
<path d="M81 26L56 14.5V26H81Z" fill="white" stroke="black" stroke-width="2"/>
<path d="M57 3L79 25.0253H57V3Z" fill="#D2D2D2"/>
</svg>
