<?xml version="1.0" standalone="no"?>
<!DOCTYPE svg PUBLIC "-//W3C//DTD SVG 20010904//EN"
 "http://www.w3.org/TR/2001/REC-SVG-20010904/DTD/svg10.dtd">
<svg width="375" height="225" viewBox="0 0 375 225" fill="none" xmlns="http://www.w3.org/2000/svg">
<path fill-rule="evenodd" clip-rule="evenodd" d="M375 0H0V225H375V0ZM184.549 36.0077C187.315 34.1823 188.077 30.4606 186.252 27.6949C184.427 24.9293 180.705 24.167 177.939 25.9923C165.028 34.5137 141.019 61.0382 144.304 101.064C147.524 140.287 168.146 161.73 178.064 167.929C180.874 169.686 184.576 168.831 186.332 166.021C188.089 163.211 187.234 159.51 184.424 157.753C177.645 153.516 159.167 135.442 156.264 100.082C153.427 65.5258 174.269 42.7924 184.549 36.0077ZM314.365 36.0067C311.6 34.1807 310.839 30.4587 312.665 27.6936C314.491 24.9284 318.213 24.1672 320.978 25.9933C333.913 34.5357 357.966 61.125 354.675 101.247C351.449 140.568 330.789 162.063 320.853 168.276C318.043 170.033 314.341 169.18 312.584 166.371C310.827 163.561 311.681 159.859 314.49 158.102C321.286 153.852 339.806 135.725 342.715 100.266C345.558 65.6093 324.668 42.8109 314.365 36.0067ZM209.137 124.924C211.364 141.343 225.603 153.565 232.444 157.623C218.53 149.275 227.226 123.532 232.444 115.532C236.552 109.233 246.939 91.5288 251.229 83.8757C255.545 97.8512 254.276 104.42 253.231 109.823C252.508 113.565 251.893 116.748 253.316 121.445C256.099 130.629 268.854 130.838 274.884 129.794C279.893 138.143 271.637 151.826 266.883 157.623C274.42 151.594 289.634 135.917 290.19 121.445C290.747 106.974 282.537 93.8479 278.363 89.0937C278.015 89.6735 276.484 91.8766 273.145 96.051C269.805 100.225 267.579 98.9499 266.883 97.7904C268.159 92.9202 269.944 79.8405 266.883 66.4824C263.822 53.1243 249.142 39.5807 242.185 34.4787C245.524 50.898 230.125 77.7301 222.008 89.0937C221.655 89.5877 221.277 90.1095 220.878 90.6584L220.876 90.6615C215.66 97.8431 207.069 109.673 209.137 124.924Z" fill="#0A0A22"/>
</svg>







