<?xml version="1.0" standalone="no"?>
<!DOCTYPE svg PUBLIC "-//W3C//DTD SVG 20010904//EN"
 "http://www.w3.org/TR/2001/REC-SVG-20010904/DTD/svg10.dtd">
<svg width="375" height="225" viewBox="0 0 375 225" fill="none" xmlns="http://www.w3.org/2000/svg">
<path fill-rule="evenodd" clip-rule="evenodd" d="M375 0H0V225H375V0ZM178 22.5V124C178 127.5 179.5 129 184 129H203C205 129 208.5 129 208.5 124V88H232V124C232 128.5 235 129 239 129H258C260.5 129 263 128 263 123.5V22.5C263 20.5 261 17 258 17L237 17C234.5 17 232 19 232 21.5V58H208.5V21.5C208.5 19.5 208.253 17 203.5 17H182.5C181 17 178 17.5 178 22.5Z" fill="#0D141E"/>
<path d="M274 124.5C274 109.5 274 28 274 21.5C274 19.5 274 18 277 18H352C356 18 356 19.5 356 23.5V124.5C356 128 354.5 128 350 128H278C275 128 274 127 274 124.5Z" fill="#00EA64" stroke="black"/>
</svg>

