<?xml version="1.0" standalone="no"?>
<!DOCTYPE svg PUBLIC "-//W3C//DTD SVG 20010904//EN"
 "http://www.w3.org/TR/2001/REC-SVG-20010904/DTD/svg10.dtd">
<svg width="375" height="225" viewBox="0 0 375 225" fill="none" xmlns="http://www.w3.org/2000/svg">
<path fill-rule="evenodd" clip-rule="evenodd" d="M0 0H375V225H0V0ZM126.492 37.0813L126.492 37.0816L126.492 37.0819C129.055 40.9809 131.814 45.177 137.567 54.4831C139.573 57.7273 139.38 61.1017 137.567 64.7119C131.522 75.5424 131.371 75.8432 131.22 76.1441C131.069 76.4449 130.918 76.7458 124.873 87.5763C121.247 92.9915 118.586 96 115.202 96H104.926C100.695 96 98.5551 91.6429 100.695 87.5763C104.122 81.3219 105.795 78.1569 107.244 75.4158C108.862 72.3555 110.2 69.8235 113.389 64.1102C115.202 61.1017 115.202 58.0932 112.784 53.8814C109.845 48.6797 108.847 46.9912 107.12 44.0703L107.119 44.0692L107.118 44.068C105.649 41.5832 103.653 38.2061 99.4861 31.0169C97.6728 27.4068 101.3 25 104.322 25H112.784C115.202 25 118.984 25.3682 120.642 28.0085C123.091 31.9085 124.746 34.4261 126.492 37.0813ZM117.588 50.8824C115.444 47.2353 108.943 35.6863 106.56 31.4314C105.198 29 106.56 29 109.011 29H113.912C116.628 29 116.936 29.4778 117.825 30.8571C117.939 31.0335 118.062 31.2246 118.201 31.4314C119.054 32.7007 121.886 36.9805 124.921 41.5679L124.922 41.5695L124.927 41.5774C128.431 46.873 132.205 52.5759 133.518 54.5294C135.968 59.3922 135.111 61.2157 132.905 64.8627C132.647 65.2893 131.895 66.5957 130.859 68.3979L130.856 68.4016C127.46 74.3056 121.006 85.5235 118.813 88.5686C117.588 90.2706 116.065 91 113.912 91H107.785C105.947 91 105.51 89.7843 106.56 87.9608C109.01 83.7067 116.36 69.1235 118.812 64.2579L118.812 64.2569L118.813 64.2564L118.813 64.2556L118.813 64.2549C121.437 59.0488 120.09 55.1373 117.588 50.8824ZM157 28.2353V71.7983C157 87.5294 170.891 96 187.198 96C211.96 96 218 80.2689 218 71.7983V35.4958C218 28.2353 211.96 24 205.921 24C201.693 24 201.693 30.0504 201.693 30.0504V71.7983C200.614 76.0336 198.069 80.2689 187.198 80.2689C176.931 80.2689 172.703 74.8235 172.703 63.9328V35.4958C172.703 28.2353 165.455 24 162.436 24C157 24 157 28.2353 157 28.2353ZM241.868 96C232.208 95.9998 231 88.1149 231 85.0821V48.6891C231 29.2796 245.485 22.1073 261.189 22.0009C277.542 21.8901 292.586 31.7056 291.982 50.5088V88.1149C291.982 91.754 291.982 95.3926 286.548 95.3926C279.907 95.3926 275.076 88.7205 275.076 79.0157L275.076 48.6891C275.68 38.9844 267.933 38.4151 261.189 38.3778C253.823 38.337 246.698 39.5909 246.698 50.5088V85.0821C246.698 93.5739 246.095 96 241.868 96ZM325.802 51.8636H343.801V42.7944C343.801 40.2277 342.601 37.9576 338.401 37.9576H318.602C310.302 37.9576 310.678 35.9001 311.257 32.7339C311.306 32.4674 311.356 32.1931 311.403 31.9115C313.69 20.9647 323.059 20.9984 330.685 21.0259C331.062 21.0272 331.435 21.0285 331.802 21.0285C350.401 20.4239 359.4 29.4931 360 41.5852V75.4433C360 84.5124 352.8 96 330.602 96C307.803 96 302.848 82.9128 303.003 73.0249C303.003 54.8866 320.402 51.8636 325.802 51.8636ZM326.273 65H344V74.1429C344 75.2857 343.409 81 336.318 81H331.591H326.864C320.955 81 318 78.7143 318 73.5714C318.006 69.308 320.542 65 326.273 65Z" fill="#C42222"/>
</svg>


